<svg width="955" height="494" viewBox="0 0 955 494" fill="none" xmlns="http://www.w3.org/2000/svg">
<g filter="url(#filter0_d_1_28)">
<path d="M314 64C305.2 64 298 71.2 298 80V102.1L470.5 243.7C491.2 260.7 520.9 260.7 541.6 243.7L714 102.1V80C714 71.2 706.8 64 698 64H314ZM298 164.2V336C298 344.8 305.2 352 314 352H698C706.8 352 714 344.8 714 336V164.2L572 280.8C533.6 312.3 478.3 312.3 440 280.8L298 164.2ZM250 80C250 44.7 278.7 16 314 16H698C733.3 16 762 44.7 762 80V336C762 371.3 733.3 400 698 400H314C278.7 400 250 371.3 250 336V80Z" fill="black"/>
<path d="M297.5 102.1V102.336L297.683 102.486L470.183 244.086C470.183 244.086 470.183 244.086 470.183 244.086C491.067 261.238 521.033 261.238 541.917 244.086L714.317 102.486L714.5 102.336V102.1V80C714.5 70.9239 707.076 63.5 698 63.5H314C304.924 63.5 297.5 70.9239 297.5 80V102.1ZM298.317 163.814L297.5 163.142V164.2V336C297.5 345.076 304.924 352.5 314 352.5H698C707.076 352.5 714.5 345.076 714.5 336V164.2V163.142L713.683 163.814L571.683 280.413C533.467 311.762 478.433 311.762 440.318 280.414L440.317 280.414L298.317 163.814ZM250.5 80C250.5 44.9761 278.976 16.5 314 16.5H698C733.024 16.5 761.5 44.9761 761.5 80V336C761.5 371.024 733.024 399.5 698 399.5H314C278.976 399.5 250.5 371.024 250.5 336V80Z" stroke="black"/>
</g>
<rect y="304" width="235" height="48" rx="24" fill="black"/>
<rect x="50" y="184" width="185" height="48" rx="24" fill="black"/>
<rect x="100" y="64" width="135" height="48" rx="24" fill="black"/>
<path d="M868.125 408.5C907.836 408.5 940 376.616 940 337.25C940 330.437 939.012 323.846 937.215 317.567C935.822 312.758 929.848 311.689 926.299 315.207L891.799 349.407C890.451 350.743 888.609 351.5 886.723 351.5H860.938C856.984 351.5 853.75 348.294 853.75 344.375V318.814C853.75 316.944 854.514 315.118 855.861 313.782L890.361 279.582C893.91 276.064 892.787 270.141 887.98 268.761C881.646 266.98 874.998 266 868.125 266C828.414 266 796.25 297.884 796.25 337.25C796.25 345.755 797.777 353.949 800.518 361.52L718.939 442.388C713.234 448.044 710 455.748 710 463.763C710 480.463 723.656 494 740.502 494C748.588 494 756.359 490.794 762.064 485.138L843.643 404.27C851.279 407.03 859.545 408.5 868.125 408.5ZM745.938 447.688C748.797 447.688 751.539 448.814 753.561 450.818C755.583 452.822 756.719 455.54 756.719 458.375C756.719 461.21 755.583 463.928 753.561 465.932C751.539 467.936 748.797 469.062 745.938 469.062C743.078 469.062 740.336 467.936 738.314 465.932C736.292 463.928 735.156 461.21 735.156 458.375C735.156 455.54 736.292 452.822 738.314 450.818C740.336 448.814 743.078 447.688 745.938 447.688Z" fill="black"/>
<path d="M883.125 392.5C922.836 392.5 955 360.616 955 321.25C955 314.437 954.012 307.846 952.215 301.567C950.822 296.758 944.848 295.689 941.299 299.207L906.799 333.407C905.451 334.743 903.609 335.5 901.723 335.5H875.938C871.984 335.5 868.75 332.294 868.75 328.375V302.814C868.75 300.944 869.514 299.118 870.861 297.782L905.361 263.582C908.91 260.064 907.787 254.141 902.98 252.761C896.646 250.98 889.998 250 883.125 250C843.414 250 811.25 281.884 811.25 321.25C811.25 329.755 812.777 337.949 815.518 345.52L733.939 426.388C728.234 432.044 725 439.748 725 447.763C725 464.463 738.656 478 755.502 478C763.588 478 771.359 474.794 777.064 469.138L858.643 388.27C866.279 391.03 874.545 392.5 883.125 392.5ZM760.938 431.688C763.797 431.688 766.539 432.814 768.561 434.818C770.583 436.822 771.719 439.54 771.719 442.375C771.719 445.21 770.583 447.928 768.561 449.932C766.539 451.936 763.797 453.062 760.938 453.062C758.078 453.062 755.336 451.936 753.314 449.932C751.292 447.928 750.156 445.21 750.156 442.375C750.156 439.54 751.292 436.822 753.314 434.818C755.336 432.814 758.078 431.688 760.938 431.688Z" fill="white"/>
<g filter="url(#filter1_d_1_28)">
<path d="M329 48C320.2 48 313 55.2 313 64V86.1L485.5 227.7C506.2 244.7 535.9 244.7 556.6 227.7L729 86.1V64C729 55.2 721.8 48 713 48H329ZM313 148.2V320C313 328.8 320.2 336 329 336H713C721.8 336 729 328.8 729 320V148.2L587 264.8C548.6 296.3 493.3 296.3 455 264.8L313 148.2ZM265 64C265 28.7 293.7 0 329 0H713C748.3 0 777 28.7 777 64V320C777 355.3 748.3 384 713 384H329C293.7 384 265 355.3 265 320V64Z" fill="white"/>
<path d="M312.5 86.1V86.3365L312.683 86.4865L485.183 228.086C485.183 228.086 485.183 228.086 485.183 228.086C506.067 245.238 536.033 245.238 556.917 228.086L729.317 86.4864L729.5 86.3364V86.1V64C729.5 54.9239 722.076 47.5 713 47.5H329C319.924 47.5 312.5 54.9239 312.5 64V86.1ZM313.317 147.814L312.5 147.142V148.2V320C312.5 329.076 319.924 336.5 329 336.5H713C722.076 336.5 729.5 329.076 729.5 320V148.2V147.142L728.683 147.814L586.683 264.413C548.467 295.762 493.433 295.762 455.318 264.414L455.317 264.414L313.317 147.814ZM265.5 64C265.5 28.9761 293.976 0.5 329 0.5H713C748.024 0.5 776.5 28.9761 776.5 64V320C776.5 355.024 748.024 383.5 713 383.5H329C293.976 383.5 265.5 355.024 265.5 320V64Z" stroke="black"/>
</g>
<rect x="15" y="288" width="235" height="48" rx="24" fill="white"/>
<rect x="65" y="168" width="185" height="48" rx="24" fill="white"/>
<rect x="115" y="48" width="135" height="48" rx="24" fill="white"/>
<defs>
<filter id="filter0_d_1_28" x="246" y="16" width="520" height="392" filterUnits="userSpaceOnUse" color-interpolation-filters="sRGB">
<feFlood flood-opacity="0" result="BackgroundImageFix"/>
<feColorMatrix in="SourceAlpha" type="matrix" values="0 0 0 0 0 0 0 0 0 0 0 0 0 0 0 0 0 0 127 0" result="hardAlpha"/>
<feOffset dy="4"/>
<feGaussianBlur stdDeviation="2"/>
<feComposite in2="hardAlpha" operator="out"/>
<feColorMatrix type="matrix" values="0 0 0 0 0 0 0 0 0 0 0 0 0 0 0 0 0 0 0.25 0"/>
<feBlend mode="normal" in2="BackgroundImageFix" result="effect1_dropShadow_1_28"/>
<feBlend mode="normal" in="SourceGraphic" in2="effect1_dropShadow_1_28" result="shape"/>
</filter>
<filter id="filter1_d_1_28" x="261" y="0" width="520" height="392" filterUnits="userSpaceOnUse" color-interpolation-filters="sRGB">
<feFlood flood-opacity="0" result="BackgroundImageFix"/>
<feColorMatrix in="SourceAlpha" type="matrix" values="0 0 0 0 0 0 0 0 0 0 0 0 0 0 0 0 0 0 127 0" result="hardAlpha"/>
<feOffset dy="4"/>
<feGaussianBlur stdDeviation="2"/>
<feComposite in2="hardAlpha" operator="out"/>
<feColorMatrix type="matrix" values="0 0 0 0 0 0 0 0 0 0 0 0 0 0 0 0 0 0 0.25 0"/>
<feBlend mode="normal" in2="BackgroundImageFix" result="effect1_dropShadow_1_28"/>
<feBlend mode="normal" in="SourceGraphic" in2="effect1_dropShadow_1_28" result="shape"/>
</filter>
</defs>
</svg>
